<svg width="343" height="70" viewBox="0 0 343 70" fill="none" xmlns="http://www.w3.org/2000/svg">
<g clip-path="url(#clip0_4_2193)">
<path d="M145.887 55.1486C145.275 54.5738 144.717 53.9145 144.213 53.1708C143.709 53.9145 143.151 54.5738 142.539 55.1486C141.387 56.2306 140.073 57.042 138.597 57.5829C137.121 58.1578 135.573 58.4451 133.953 58.4451C132.333 58.4451 130.785 58.1578 129.309 57.5829C127.833 57.042 126.519 56.2306 125.367 55.1486C124.215 54.0667 123.333 52.8327 122.721 51.4465C122.109 50.0602 121.803 48.6065 121.803 47.085V31.9214H125.583V47.085C125.583 48.167 125.799 49.1813 126.231 50.1279C126.699 51.0745 127.311 51.9029 128.067 52.6129C128.823 53.3229 129.705 53.8808 130.713 54.2865C131.721 54.6922 132.801 54.8951 133.953 54.8951C135.069 54.8951 136.113 54.7092 137.085 54.3372C138.093 53.9315 138.975 53.3906 139.731 52.7143C140.487 52.0381 141.081 51.2606 141.513 50.3815C141.981 49.4686 142.251 48.4881 142.323 47.44V31.9214H146.103V47.44C146.139 48.4881 146.373 49.4686 146.805 50.3815C147.273 51.2606 147.885 52.0381 148.641 52.7143C149.397 53.3906 150.279 53.9315 151.287 54.3372C152.295 54.7092 153.357 54.8951 154.473 54.8951C155.625 54.8951 156.705 54.6922 157.713 54.2865C158.721 53.8808 159.603 53.3229 160.359 52.6129C161.115 51.9029 161.709 51.0745 162.141 50.1279C162.609 49.1813 162.843 48.167 162.843 47.085V31.9214H166.623V47.085C166.623 48.6065 166.317 50.0602 165.705 51.4465C165.093 52.8327 164.211 54.0667 163.059 55.1486C161.907 56.2306 160.593 57.042 159.117 57.5829C157.641 58.1578 156.093 58.4451 154.473 58.4451C152.853 58.4451 151.305 58.1578 149.829 57.5829C148.353 57.042 147.039 56.2306 145.887 55.1486ZM186.115 58.4451C184.135 58.4451 182.245 58.0901 180.445 57.3801C178.681 56.6701 177.097 55.6727 175.693 54.3879C174.325 53.0693 173.263 51.5649 172.507 49.8743C171.751 48.1838 171.373 46.4257 171.373 44.6C171.373 42.7405 171.751 40.9655 172.507 39.275C173.263 37.5845 174.325 36.08 175.693 34.7614C177.097 33.4766 178.681 32.4793 180.445 31.7693C182.245 31.0593 184.135 30.7043 186.115 30.7043C188.095 30.7043 189.985 31.0593 191.785 31.7693C193.585 32.4793 195.187 33.4766 196.591 34.7614C197.959 36.08 199.021 37.5845 199.777 39.275C200.533 40.9655 200.911 42.7405 200.911 44.6C200.911 46.4257 200.533 48.1838 199.777 49.8743C199.021 51.5649 197.959 53.0693 196.591 54.3879C195.187 55.6727 193.585 56.6701 191.785 57.3801C189.985 58.0901 188.095 58.4451 186.115 58.4451ZM186.115 34.2543C184.603 34.2543 183.181 34.5248 181.849 35.0657C180.517 35.6067 179.347 36.3505 178.339 37.2971C177.367 38.21 176.593 39.3088 176.017 40.5936C175.441 41.8445 175.153 43.18 175.153 44.6C175.153 46.02 175.441 47.3556 176.017 48.6065C176.593 49.8574 177.367 50.9563 178.339 51.9029C179.347 52.8158 180.517 53.5427 181.849 54.0836C183.181 54.6245 184.603 54.8951 186.115 54.8951C187.627 54.8951 189.049 54.6245 190.381 54.0836C191.713 53.5427 192.883 52.8158 193.891 51.9029C194.899 50.9563 195.691 49.8574 196.267 48.6065C196.843 47.3556 197.131 46.02 197.131 44.6C197.131 43.18 196.843 41.8445 196.267 40.5936C195.691 39.3088 194.899 38.21 193.891 37.2971C192.883 36.3505 191.713 35.6067 190.381 35.0657C189.049 34.5248 187.627 34.2543 186.115 34.2543ZM221.767 35.6743C220.831 35.4038 219.895 35.2686 218.959 35.2686C217.807 35.2686 216.727 35.4714 215.719 35.8771C214.711 36.2829 213.829 36.8407 213.073 37.5507C212.317 38.2607 211.723 39.0891 211.291 40.0357C210.859 40.9823 210.643 41.9966 210.643 43.0786V57.2787H206.863V31.9214H209.995L210.913 34.5586C212.029 33.6457 213.271 32.9526 214.639 32.4793C216.007 31.9721 217.447 31.7185 218.959 31.7185C219.463 31.7185 219.931 31.7524 220.363 31.82C220.831 31.8538 221.299 31.9045 221.767 31.9721V35.6743ZM240.939 57.2787L231.435 45.4115L230.841 46.1722V57.2787H227.061V21.7785H230.841V40.2386L237.537 31.9214H242.289L233.811 42.4193L245.745 57.2787H240.939ZM255.779 55.1486C254.627 54.0667 253.745 52.8327 253.133 51.4465C252.521 50.0602 252.215 48.6065 252.215 47.085V31.9214H255.995V47.085C255.995 48.167 256.211 49.1813 256.643 50.1279C257.111 51.0745 257.723 51.9029 258.479 52.6129C259.235 53.3229 260.117 53.8808 261.125 54.2865C262.133 54.6922 263.213 54.8951 264.365 54.8951C265.517 54.8951 266.597 54.6922 267.605 54.2865C268.613 53.8808 269.495 53.3229 270.251 52.6129C271.007 51.9029 271.601 51.0745 272.033 50.1279C272.501 49.1813 272.735 48.167 272.735 47.085V31.9214H276.515V47.085C276.515 48.6065 276.209 50.0602 275.597 51.4465C274.985 52.8327 274.103 54.0667 272.951 55.1486C271.799 56.2306 270.485 57.042 269.009 57.5829C267.533 58.1578 265.985 58.4451 264.365 58.4451C262.745 58.4451 261.197 58.1578 259.721 57.5829C258.245 57.042 256.931 56.2306 255.779 55.1486ZM287.332 34.7614C288.7 33.4766 290.284 32.4793 292.083 31.7693C293.884 31.0593 295.774 30.7043 297.753 30.7043C299.734 30.7043 301.624 31.0593 303.423 31.7693C305.224 32.4793 306.808 33.4766 308.175 34.7614C309.579 36.08 310.642 37.5845 311.361 39.275C312.117 40.9655 312.495 42.7405 312.495 44.6C312.495 46.4257 312.117 48.1838 311.361 49.8743C310.642 51.5649 309.579 53.0693 308.175 54.3879C306.808 55.6727 305.224 56.6701 303.423 57.3801C301.624 58.0901 299.734 58.4451 297.753 58.4451C295.774 58.4451 293.884 58.0901 292.083 57.3801C290.284 56.6701 288.7 55.6727 287.332 54.3879C287.08 54.1513 286.9 53.9653 286.792 53.8301V68.1316H283.012V44.6C283.012 42.7405 283.372 40.9655 284.092 39.275C284.848 37.5845 285.928 36.08 287.332 34.7614ZM297.753 54.8951C299.265 54.8951 300.688 54.6245 302.019 54.0836C303.352 53.5427 304.503 52.8158 305.475 51.9029C306.484 50.9563 307.276 49.8574 307.851 48.6065C308.428 47.3556 308.715 46.02 308.715 44.6C308.715 43.18 308.428 41.8445 307.851 40.5936C307.276 39.3088 306.484 38.21 305.475 37.2971C304.503 36.3505 303.352 35.6067 302.019 35.0657C300.688 34.5248 299.265 34.2543 297.753 34.2543C296.241 34.2543 294.82 34.5248 293.487 35.0657C292.156 35.6067 290.986 36.3505 289.977 37.2971C289.005 38.21 288.232 39.3088 287.656 40.5936C287.08 41.8445 286.792 43.18 286.792 44.6C286.792 46.02 287.08 47.3556 287.656 48.6065C288.232 49.8574 289.005 50.9563 289.977 51.9029C290.986 52.8158 292.156 53.5427 293.487 54.0836C294.82 54.6245 296.241 54.8951 297.753 54.8951ZM337.757 55.3515C336.605 56.332 335.309 57.0928 333.869 57.6337C332.465 58.1746 330.97 58.4451 329.387 58.4451C327.767 58.4451 326.218 58.1578 324.743 57.5829C323.267 57.042 321.952 56.2306 320.801 55.1486C319.649 54.0667 318.766 52.8327 318.155 51.4465C317.543 50.0602 317.237 48.6065 317.237 47.085V31.9214H321.017V47.085C321.017 48.167 321.233 49.1813 321.665 50.1279C322.133 51.0745 322.745 51.9029 323.501 52.6129C324.257 53.3229 325.138 53.8808 326.147 54.2865C327.155 54.6922 328.235 54.8951 329.387 54.8951C330.503 54.8951 331.547 54.7092 332.519 54.3372C333.527 53.9315 334.409 53.3906 335.165 52.7143C335.921 52.0381 336.515 51.2606 336.947 50.3815C337.415 49.4686 337.685 48.4881 337.757 47.44V31.9214H341.537V57.8872C341.537 59.5778 341.284 61.0992 340.781 62.4515C340.277 63.8378 339.556 65.021 338.621 66.0015C337.685 67.0158 336.532 67.7935 335.165 68.3344C333.832 68.8753 332.32 69.1458 330.629 69.1458V65.5958C331.888 65.5958 332.968 65.376 333.869 64.9365C334.769 64.5308 335.506 63.973 336.083 63.263C336.659 62.553 337.072 61.7246 337.325 60.778C337.612 59.8651 337.757 58.9015 337.757 57.8872V55.3515Z" fill="url(#paint0_linear_4_2193)"/>
</g>
<path d="M21.0151 14.0032L2 39.788L28.3618 56.6814L58.1807 2M48.3761 43.1063L58.3697 55.3066M60.1348 56.5269L84.5 38.4978L67.829 17.3906" stroke="#844DFE" stroke-width="4" stroke-linecap="round" stroke-linejoin="round"/>
<defs>
<linearGradient id="paint0_linear_4_2193" x1="155.688" y1="107.993" x2="420.555" y2="95.4187" gradientUnits="userSpaceOnUse">
<stop offset="0.0250919" stop-color="#844DFE"/>
<stop offset="0.739583" stop-color="#39BEFF"/>
</linearGradient>
<clipPath id="clip0_4_2193">
<rect width="222.75" height="49.1297" fill="white" transform="translate(120.25 20.8276)"/>
</clipPath>
</defs>
</svg>
